Coordinates
version=1
nRows=29
nColumns=24
inDegrees=yes

Units are S.I. units (second, meters, Newtons, ...)
Angles are in degrees.

endheader
time	pelvis_tilt	pelvis_list	pelvis_rotation	pelvis_tx	pelvis_ty	pelvis_tz	hip_flexion_r	hip_adduction_r	hip_rotation_r	knee_angle_r	ankle_angle_r	subtalar_angle_r	mtp_angle_r	hip_flexion_l	hip_adduction_l	hip_rotation_l	knee_angle_l	ankle_angle_l	subtalar_angle_l	mtp_angle_l	lumbar_extension	lumbar_bending	lumbar_rotation
      4.74000000	    -12.20126950	      7.40317659	      4.95728028	     -1.66535287	     -0.03562410	      2.04515164	     14.47561331	    -13.60127125	    -13.18198316	    -58.15967498	    -25.52594502	     -9.07879439	     23.76339051	     30.25597169	     12.80659797	     -4.97141524	    -22.20692226	     -3.54682899	     -6.42020915	     17.13353442	     10.17424027	     -9.49329341	     -3.07007931
      4.75000000	    -12.31394472	      7.48290245	      4.92005075	     -1.65347429	     -0.03412112	      2.04439119	     16.40924319	    -13.53866461	    -12.10498714	    -59.91477746	    -23.91349996	    -10.67830220	     21.97968633	     29.35910759	     12.81150949	     -5.40213626	    -21.80979994	     -3.09542311	     -5.97081044	     19.16669823	     10.19148425	     -9.58294490	     -3.21850822
      4.76000000	    -12.22250439	      7.54303500	      4.81436816	     -1.64173876	     -0.03223437	      2.04374679	     18.10829274	    -13.37287861	    -11.01482793	    -61.29806858	    -22.43998413	    -11.89946566	     20.84126275	     28.17765102	     12.78691122	     -5.71677759	    -21.30409200	     -2.58749340	     -5.51105180	     20.37601581	      9.98245592	     -9.61803018	     -3.40206217
      4.77000000	    -12.07717833	      7.58298613	      4.77961078	     -1.63002507	     -0.03023870	      2.04288116	     19.66356015	    -13.21499499	    -10.06495843	    -62.33504369	    -20.94794417	    -12.56749624	     20.89859967	     26.84619506	     12.84249339	     -5.70650941	    -20.67579338	     -2.01744497	     -5.18270583	     20.52622364	      9.71997572	     -9.61832173	     -3.66471910
      4.78000000	    -12.00029088	      7.51657267	      4.74498757	     -1.61853704	     -0.02830546	      2.04201628	     21.26714254	    -12.91062891	     -9.17252012	    -63.07405668	    -19.36939768	    -12.93192810	     20.98246774	     25.57530948	     12.82551670	     -5.52227448	    -19.99121369	     -1.56340666	     -5.04218352	     20.52283298	      9.51920077	     -9.50959618	     -3.91918761
      4.79000000	    -11.99145521	      7.44572624	      4.65477272	     -1.60714030	     -0.02649935	      2.04115176	     22.93412311	    -12.56638165	     -8.27335253	    -63.55122669	    -17.75801023	    -13.09129714	     20.75148564	     24.33984222	     12.82109855	     -5.23491209	    -19.22671003	     -1.06441719	     -5.05635668	     19.76169300	      9.40852234	     -9.37467034	     -4.09840937
      4.80000000	    -11.91239116	      7.24486440	      4.74566365	     -1.59585643	     -0.02466398	      2.04008646	     24.34988202	    -12.16279284	     -7.70739664	    -63.65555538	    -16.02275562	    -12.99902092	     21.04884341	     23.03476859	     12.74179700	     -4.79707429	    -18.47571110	     -0.62928761	     -4.98968176	     19.47039204	      9.18996086	     -9.13859690	     -4.52967257
      4.81000000	    -11.84591794	      6.96013745	      4.83122709	     -1.58464169	     -0.02289526	      2.03899559	     25.70392730	    -11.66939620	     -7.23245956	    -63.44365548	    -14.40247927	    -12.83788112	     21.40086619	     21.75575412	     12.57302410	     -4.31293363	    -17.71981192	     -0.21898753	     -4.98203921	     19.13504839	      8.99287723	     -8.80374121	     -4.93344997
      4.82000000	    -11.63171449	      6.59579914	      4.98013723	     -1.57355658	     -0.02100458	      2.03783265	     26.76113666	    -11.14545215	     -7.00589489	    -62.86460392	    -12.96924881	    -12.76497445	     22.12240285	     20.34603776	     12.34459226	     -3.67625251	    -17.02293061	      0.27710951	     -5.04243307	     17.70113055	      8.60596088	     -8.38557329	     -5.39950313
      4.83000000	    -11.64304044	      6.19589289	      5.18827709	     -1.56259365	     -0.01960191	      2.03676450	     28.02639340	    -10.64245954	     -6.90626679	    -62.11549397	    -11.56612994	    -12.61898688	     22.38715803	     19.24879989	     12.04644404	     -3.23485277	    -16.39472234	      0.71523091	     -4.88121532	     17.55557917	      8.45798521	     -7.97397494	     -5.85138450
      4.84000000	    -11.53489699	      5.76990793	      5.47157156	     -1.55164117	     -0.01814920	      2.03556143	     29.04188538	    -10.19964750	     -7.03382937	    -61.07821155	    -10.37835875	    -12.49238155	     22.55050182	     18.00118961	     11.74064041	     -2.69161961	    -15.71415195	      1.06757550	     -4.85769349	     17.33712917	      8.17829683	     -7.52871354	     -6.38895355
      4.85000000	    -11.34408540	      5.33863775	      5.75013932	     -1.54071398	     -0.01670488	      2.03441311	     29.88640330	     -9.77224508	     -7.27727214	    -59.78710435	     -9.43375144	    -12.47761219	     22.46393595	     16.65351261	     11.40419361	     -2.13400896	    -14.99419750	      1.37979883	     -4.88172383	     16.96769964	      7.81376130	     -7.06747931	     -6.87416755
      4.86000000	    -11.19893622	      4.92503361	      6.06020576	     -1.52984949	     -0.01552115	      2.03327450	     30.71691352	     -9.41364371	     -7.62791098	    -58.32412951	     -8.54534344	    -12.42047650	     22.04752218	     15.38025271	     11.06896376	     -1.65952324	    -14.30104187	      1.71838979	     -4.83946958	     16.66230266	      7.49689499	     -6.63224992	     -7.37135581
      4.87000000	    -11.16761852	      4.52302886	      6.43014544	     -1.51903563	     -0.01464235	      2.03212555	     31.59856145	     -9.13166377	     -8.07583097	    -56.68949199	     -7.78550901	    -12.29628278	     21.72190988	     14.25501042	     10.73887983	     -1.22351687	    -13.63429450	      2.05504009	     -4.67759887	     16.58598680	      7.30345802	     -6.23257555	     -7.89759748
      4.88000000	    -11.03647496	      4.16102048	      6.68133490	     -1.50822503	     -0.01381861	      2.03124879	     32.32060595	     -8.78899017	     -8.41825068	    -54.90924818	     -6.87685658	    -12.02242314	     19.63098623	     13.01165400	     10.38911811	     -0.86122193	    -12.93351805	      2.43810845	     -4.53481856	     16.12523933	      7.01342624	     -5.85022930	     -8.27321438
      4.89000000	    -11.05028603	      3.78100376	      7.00087456	     -1.49748330	     -0.01332938	      2.03031577	     33.09386033	     -8.50993639	     -8.88103270	    -52.89636650	     -6.28061427	    -11.79257942	     19.38723322	     11.96398024	     10.03406843	     -0.48888194	    -12.27106720	      2.75454465	     -4.40704985	     16.09614294	      6.87774521	     -5.47039747	     -8.70526997
      4.90000000	    -10.89933814	      3.45178035	      7.17248207	     -1.48668963	     -0.01282475	      2.02965974	     33.61620312	     -8.16562194	     -9.22139006	    -50.71347086	     -5.58293143	    -11.37461738	     18.41818175	     10.70546470	      9.66608342	     -0.20901325	    -11.53915900	      3.07516092	     -4.34489110	     15.79772360	      6.57832910	     -5.10324973	     -8.99176759
      4.91000000	    -10.93260885	      3.19545945	      7.34948747	     -1.47591824	     -0.01277785	      2.02908143	     34.29979467	     -7.93932341	     -9.56133881	    -48.48060197	     -4.73356530	    -10.58173273	     17.05146341	      9.68111690	      9.37673932	     -0.02899725	    -10.89130322	      3.53402622	     -4.09055974	     15.13569386	      6.47248508	     -4.84027178	     -9.23341535
      4.92000000	    -11.04633237	      2.93616137	      7.53132978	     -1.46514667	     -0.01301202	      2.02852626	     34.98842018	     -7.76020617	    -10.03116025	    -46.06463878	     -4.15933049	     -9.77992094	     17.04418861	      8.77159069	      9.08433626	      0.09796899	    -10.27103975	      3.90548612	     -3.88489585	     15.05154320	      6.45905795	     -4.58132385	     -9.48768362
      4.93000000	    -11.04648291	      2.71621194	      7.61287841	     -1.45430592	     -0.01330644	      2.02814932	     35.48895816	     -7.56688692	    -10.50931801	    -43.51403483	     -3.64994960	     -8.75287577	     17.18266175	      7.72773991	      8.79157477	      0.10549347	     -9.63515682	      4.30542052	     -3.66193532	     14.85881853	      6.33083749	     -4.33288213	     -9.63785108
      4.94000000	    -10.96180993	      2.44904591	      7.61821513	     -1.44340050	     -0.01364196	      2.02794511	     35.80632789	     -7.26796737	    -11.04658554	    -40.76684874	     -3.35250790	     -7.66753012	     17.86511944	      6.61958979	      8.41714869	      0.04145979	     -9.04907301	      4.80700804	     -3.40263869	     14.41089670	      6.12910935	     -4.01444033	     -9.69812962
      4.95000000	    -10.92364628	      2.16259314	      7.60298614	     -1.43253128	     -0.01418902	      2.02781424	     36.10626292	     -6.96291505	    -11.69212598	    -37.89601488	     -3.23375391	     -6.35242412	     19.44283869	      5.61971396	      8.02185433	     -0.14446179	     -8.56210268	      5.41084053	     -3.02922404	     13.88718539	      5.97307777	     -3.67569994	     -9.74105357
      4.96000000	    -10.94088459	      1.84304208	      7.53120352	     -1.42172989	     -0.01490516	      2.02781888	     36.40095570	     -6.59222047	    -12.38219257	    -34.89989576	     -3.30964729	     -4.88283278	     21.77259600	      4.74522238	      7.59319465	     -0.46144203	     -8.16848103	      6.03103793	     -2.64320409	     13.44756801	      5.86914569	     -3.30082720	     -9.69623352
      4.97000000	    -11.05488540	      1.57853191	      7.32059687	     -1.41106156	     -0.01587634	      2.02800573	     36.77596785	     -6.18637034	    -12.93276110	    -31.85676618	     -3.48999025	     -3.19866554	     24.89497630	      4.02529858	      7.24406106	     -0.92768790	     -7.84418242	      6.54634983	     -2.45163636	     13.06797810	      5.84243926	     -2.96507818	     -9.48814741
      4.98000000	    -11.26232949	      1.20059536	      7.21524837	     -1.40043413	     -0.01695706	      2.02823221	     37.15319335	     -5.68821625	    -13.54207188	    -28.81527885	     -3.30757666	     -1.30084545	     25.31571343	      3.51738075	      6.78324701	     -1.42876568	     -7.69315278	      7.10906597	     -2.11123364	     13.15131487	      5.91242400	     -2.55223907	     -9.45055690
      4.99000000	    -11.22482404	      0.75903158	      6.96504311	     -1.38962735	     -0.01779084	      2.02875054	     37.14135604	     -4.93667651	    -13.93209250	    -25.62195588	     -3.25529981	      0.32514450	     26.22104555	      2.74837479	      6.19974610	     -2.09959926	     -7.56454780	      7.73570567	     -1.67369687	     13.15310462	      5.74423216	     -2.02264608	     -9.25287752
      5.00000000	    -11.38931270	      0.50021708	      6.73278411	     -1.37890958	     -0.01907694	      2.02927173	     37.32602218	     -4.39815049	    -14.18342295	    -22.57470709	     -3.01178088	      2.11346176	     26.49550502	      2.26684833	      5.86453177	     -2.79500214	     -7.60045903	      8.22884340	     -1.44982745	     13.15848386	      5.74466847	     -1.70554620	     -9.04520407
      5.01000000	    -11.34949179	      0.22360390	      6.54726162	     -1.36774530	     -0.02026357	      2.02994339	     37.09779766	     -3.76993046	    -14.27015916	    -19.39189814	     -2.84563147	      3.46779157	     26.46252186	      1.56140365	      5.45635855	     -3.50170118	     -7.70369567	      8.80821687	     -1.00122406	     13.13718959	      5.58093220	     -1.37321598	     -8.89250113
      5.02000000	    -11.15915931	     -0.00974766	      6.45312403	     -1.35615956	     -0.02146181	      2.03067599	     36.52641871	     -3.16640739	    -14.18891420	    -16.13273036	     -2.81540151	      4.37259590	     26.03309928	      0.70076479	      5.05478385	     -4.12580623	     -7.89798966	      9.38269091	     -0.46609859	     13.07593950	      5.29774463	     -1.09946564	     -8.82938002
